<svg xmlns="http://www.w3.org/2000/svg" xmlns:xlink="http://www.w3.org/1999/xlink" width="90" zoomAndPan="magnify" viewBox="0 0 67.5 187.499992" height="250" preserveAspectRatio="xMidYMid meet" version="1.0"><defs><clipPath id="940e2da277"><path d="M 0 1.179688 L 67 1.179688 L 67 186.554688 L 0 186.554688 Z M 0 1.179688 " clip-rule="nonzero"/></clipPath></defs><g clip-path="url(#940e2da277)"><path fill="#000000" d="M 1.96875 44.414062 C 4 46.097656 7.011719 45.816406 8.699219 43.785156 L 28.546875 19.835938 L 28.546875 181.378906 C 28.546875 184.019531 30.6875 186.160156 33.328125 186.160156 C 35.964844 186.160156 38.109375 184.019531 38.109375 181.378906 L 38.109375 19.835938 L 57.957031 43.785156 C 59.640625 45.816406 62.65625 46.097656 64.6875 44.414062 C 66.71875 42.726562 67 39.714844 65.316406 37.679688 L 37.007812 3.527344 C 36.097656 2.433594 34.75 1.796875 33.328125 1.796875 C 31.90625 1.796875 30.554688 2.433594 29.648438 3.527344 L 1.339844 37.679688 C -0.347656 39.714844 -0.0664062 42.726562 1.96875 44.414062 " fill-opacity="1" fill-rule="nonzero"/></g></svg>