<svg xmlns="http://www.w3.org/2000/svg" xmlns:xlink="http://www.w3.org/1999/xlink" width="90" zoomAndPan="magnify" viewBox="0 0 67.5 187.499992" height="250" preserveAspectRatio="xMidYMid meet" version="1.0"><defs><clipPath id="8f747337d7"><path d="M 0 0.441406 L 67 0.441406 L 67 186.5625 L 0 186.5625 Z M 0 0.441406 " clip-rule="nonzero"/></clipPath></defs><g clip-path="url(#8f747337d7)"><path fill="#ffffff" d="M 1.628906 43.679688 C 3.671875 45.375 6.703125 45.089844 8.394531 43.046875 L 28.347656 18.972656 L 28.347656 181.355469 C 28.347656 184.007812 30.5 186.160156 33.152344 186.160156 C 35.804688 186.160156 37.957031 184.007812 37.957031 181.355469 L 37.957031 18.972656 L 57.910156 43.046875 C 59.601562 45.089844 62.632812 45.375 64.675781 43.679688 C 66.71875 41.984375 67 38.957031 65.308594 36.914062 L 36.851562 2.582031 C 35.9375 1.480469 34.582031 0.84375 33.152344 0.84375 C 31.722656 0.84375 30.367188 1.480469 29.453125 2.582031 L 0.996094 36.914062 C -0.695312 38.957031 -0.414062 41.984375 1.628906 43.679688 " fill-opacity="1" fill-rule="nonzero"/></g></svg>