<svg xmlns="http://www.w3.org/2000/svg" xmlns:xlink="http://www.w3.org/1999/xlink" width="90" zoomAndPan="magnify" viewBox="0 0 67.5 187.499992" height="250" preserveAspectRatio="xMidYMid meet" version="1.0"><defs><clipPath id="9bc11f27e5"><path d="M 0 1.402344 L 66.65625 1.402344 L 66.65625 186.5625 L 0 186.5625 Z M 0 1.402344 " clip-rule="nonzero"/></clipPath></defs><g clip-path="url(#9bc11f27e5)"><path fill="#000000" d="M 64.6875 143.542969 C 62.65625 141.859375 59.640625 142.140625 57.957031 144.171875 L 38.109375 168.121094 L 38.109375 6.578125 C 38.109375 3.9375 35.96875 1.796875 33.328125 1.796875 C 30.6875 1.796875 28.546875 3.9375 28.546875 6.578125 L 28.546875 168.121094 L 8.699219 144.171875 C 7.015625 142.140625 4 141.859375 1.96875 143.542969 C -0.0664062 145.230469 -0.347656 148.242188 1.339844 150.273438 L 29.648438 184.429688 C 30.554688 185.523438 31.90625 186.160156 33.328125 186.160156 C 34.75 186.160156 36.097656 185.523438 37.007812 184.429688 L 65.316406 150.273438 C 67 148.242188 66.71875 145.230469 64.6875 143.542969 " fill-opacity="1" fill-rule="nonzero"/></g></svg>