<svg xmlns="http://www.w3.org/2000/svg" xmlns:xlink="http://www.w3.org/1999/xlink" width="90" zoomAndPan="magnify" viewBox="0 0 67.5 187.499992" height="250" preserveAspectRatio="xMidYMid meet" version="1.0"><defs><clipPath id="5447e6e846"><path d="M 0 0.441406 L 67 0.441406 L 67 186.5625 L 0 186.5625 Z M 0 0.441406 " clip-rule="nonzero"/></clipPath></defs><g clip-path="url(#5447e6e846)"><path fill="#ffffff" d="M 64.675781 143.324219 C 62.632812 141.628906 59.605469 141.914062 57.910156 143.957031 L 37.957031 168.03125 L 37.957031 5.648438 C 37.957031 2.996094 35.808594 0.84375 33.152344 0.84375 C 30.5 0.84375 28.347656 2.996094 28.347656 5.648438 L 28.347656 168.03125 L 8.394531 143.957031 C 6.703125 141.914062 3.671875 141.628906 1.628906 143.324219 C -0.414062 145.019531 -0.695312 148.046875 0.996094 150.089844 L 29.453125 184.421875 C 30.367188 185.523438 31.722656 186.160156 33.152344 186.160156 C 34.582031 186.160156 35.9375 185.523438 36.851562 184.421875 L 65.308594 150.089844 C 67 148.046875 66.71875 145.019531 64.675781 143.324219 " fill-opacity="1" fill-rule="nonzero"/></g></svg>