<svg xmlns="http://www.w3.org/2000/svg" xmlns:xlink="http://www.w3.org/1999/xlink" width="150" zoomAndPan="magnify" viewBox="0 0 112.5 112.499997" height="150" preserveAspectRatio="xMidYMid meet" version="1.0"><defs><clipPath id="73fb73e51c"><path d="M 0 0 L 112.003906 0 L 112.003906 112 L 0 112 Z M 0 0 " clip-rule="nonzero"/></clipPath></defs><g clip-path="url(#73fb73e51c)"><path fill="#9e9e9e" d="M 112.003906 94.972656 C 112.003906 104.371094 104.382812 111.992188 94.984375 111.992188 L 17.023438 111.992188 C 7.625 111.992188 0.00390625 104.371094 0.00390625 94.972656 L 0.00390625 17.011719 C 0.00390625 7.613281 7.625 -0.0078125 17.023438 -0.0078125 L 94.984375 -0.0078125 C 104.382812 -0.0078125 112.003906 7.613281 112.003906 17.011719 Z M 112.003906 94.972656 " fill-opacity="1" fill-rule="nonzero"/></g><path fill="#ffffff" d="M 44.289062 39.949219 C 44.289062 40.5 44.238281 41.042969 44.128906 41.582031 C 44.023438 42.121094 43.863281 42.644531 43.652344 43.152344 C 43.445312 43.660156 43.1875 44.140625 42.878906 44.597656 C 42.574219 45.054688 42.230469 45.480469 41.839844 45.867188 C 41.453125 46.253906 41.027344 46.601562 40.570312 46.90625 C 40.117188 47.210938 39.632812 47.46875 39.125 47.679688 C 38.617188 47.890625 38.09375 48.050781 37.554688 48.15625 C 37.015625 48.265625 36.472656 48.316406 35.925781 48.316406 C 35.375 48.316406 34.832031 48.265625 34.292969 48.15625 C 33.753906 48.050781 33.230469 47.890625 32.722656 47.679688 C 32.214844 47.46875 31.734375 47.210938 31.277344 46.90625 C 30.820312 46.601562 30.394531 46.253906 30.007812 45.867188 C 29.621094 45.480469 29.273438 45.054688 28.96875 44.597656 C 28.664062 44.140625 28.40625 43.660156 28.195312 43.152344 C 27.984375 42.644531 27.824219 42.121094 27.71875 41.582031 C 27.609375 41.042969 27.558594 40.5 27.558594 39.949219 C 27.558594 39.402344 27.609375 38.859375 27.71875 38.320312 C 27.824219 37.78125 27.984375 37.257812 28.195312 36.75 C 28.40625 36.242188 28.664062 35.757812 28.96875 35.304688 C 29.273438 34.847656 29.621094 34.421875 30.007812 34.035156 C 30.394531 33.644531 30.820312 33.300781 31.277344 32.996094 C 31.734375 32.6875 32.214844 32.429688 32.722656 32.222656 C 33.230469 32.011719 33.753906 31.851562 34.292969 31.746094 C 34.832031 31.636719 35.375 31.585938 35.925781 31.585938 C 36.472656 31.585938 37.015625 31.636719 37.554688 31.746094 C 38.09375 31.851562 38.617188 32.011719 39.125 32.222656 C 39.632812 32.429688 40.117188 32.6875 40.570312 32.996094 C 41.027344 33.300781 41.453125 33.644531 41.839844 34.035156 C 42.230469 34.421875 42.574219 34.847656 42.878906 35.304688 C 43.1875 35.757812 43.445312 36.242188 43.652344 36.75 C 43.863281 37.257812 44.023438 37.78125 44.128906 38.320312 C 44.238281 38.859375 44.289062 39.402344 44.289062 39.949219 Z M 44.289062 39.949219 " fill-opacity="1" fill-rule="nonzero"/><path fill="#ffffff" d="M 28.710938 54.484375 L 43.085938 54.484375 L 43.085938 100.726562 L 28.710938 100.726562 Z M 28.710938 54.484375 " fill-opacity="1" fill-rule="nonzero"/><path fill="#ffffff" d="M 52.125 54.484375 L 65.804688 54.484375 L 65.804688 100.726562 L 52.125 100.726562 Z M 52.125 54.484375 " fill-opacity="1" fill-rule="nonzero"/><path fill="#ffffff" d="M 52.714844 79.105469 L 66.398438 79.105469 L 66.398438 100.726562 L 52.714844 100.726562 Z M 52.714844 79.105469 " fill-opacity="1" fill-rule="nonzero"/><path fill="#ffffff" d="M 66.398438 79.105469 C 66.398438 79.105469 66.183594 73.109375 67.765625 69.988281 C 67.765625 69.988281 69.347656 66.148438 74.316406 66.125 C 74.316406 66.125 80.148438 65.109375 81.820312 70.894531 C 81.820312 70.894531 82.453125 74.101562 82.453125 75.457031 C 82.453125 76.816406 82.5 100.726562 82.5 100.726562 L 96.828125 100.726562 L 96.828125 74.238281 C 96.828125 74.238281 97.867188 59.277344 88.886719 55.179688 C 88.886719 55.179688 74.121094 48.550781 66.109375 60.722656 C 66.109375 60.722656 64.359375 61.929688 64.117188 58.554688 C 63.875 55.179688 61.828125 63.738281 61.769531 63.917969 C 61.707031 64.097656 64.117188 80.972656 64.117188 80.972656 Z M 66.398438 79.105469 " fill-opacity="1" fill-rule="nonzero"/></svg>