<svg xmlns="http://www.w3.org/2000/svg" xmlns:xlink="http://www.w3.org/1999/xlink" width="150" zoomAndPan="magnify" viewBox="0 0 112.5 112.499997" height="150" preserveAspectRatio="xMidYMid meet" version="1.0"><defs><clipPath id="30cd2b3e4c"><path d="M 4 4 L 112.003906 4 L 112.003906 112.003906 L 4 112.003906 Z M 4 4 " clip-rule="nonzero"/></clipPath></defs><g clip-path="url(#30cd2b3e4c)"><path fill="#000000" d="M 110.960938 105.863281 L 77.179688 72.121094 C 77.746094 71.449219 78.289062 70.757812 78.808594 70.050781 C 79.328125 69.34375 79.828125 68.621094 80.300781 67.882812 C 80.777344 67.144531 81.226562 66.394531 81.652344 65.628906 C 82.082031 64.859375 82.484375 64.082031 82.859375 63.289062 C 83.238281 62.496094 83.589844 61.691406 83.914062 60.878906 C 84.242188 60.0625 84.539062 59.238281 84.8125 58.402344 C 85.085938 57.570312 85.332031 56.726562 85.554688 55.878906 C 85.773438 55.027344 85.964844 54.171875 86.132812 53.3125 C 86.296875 52.449219 86.433594 51.582031 86.542969 50.710938 C 86.65625 49.839844 86.738281 48.96875 86.792969 48.09375 C 86.847656 47.214844 86.875 46.339844 86.871094 45.460938 C 86.871094 44.585938 86.84375 43.707031 86.785156 42.832031 C 86.726562 41.957031 86.644531 41.082031 86.53125 40.210938 C 86.417969 39.34375 86.277344 38.476562 86.109375 37.613281 C 85.941406 36.753906 85.746094 35.898438 85.527344 35.050781 C 85.304688 34.199219 85.054688 33.359375 84.777344 32.527344 C 84.503906 31.691406 84.199219 30.867188 83.871094 30.054688 C 83.542969 29.242188 83.191406 28.4375 82.8125 27.648438 C 82.433594 26.855469 82.027344 26.078125 81.601562 25.3125 C 81.171875 24.546875 80.71875 23.792969 80.242188 23.058594 C 79.765625 22.320312 79.265625 21.597656 78.742188 20.894531 C 78.21875 20.1875 77.675781 19.5 77.109375 18.832031 C 76.542969 18.160156 75.957031 17.507812 75.347656 16.875 C 74.738281 16.242188 74.113281 15.628906 73.464844 15.035156 C 72.820312 14.441406 72.152344 13.871094 71.46875 13.320312 C 70.789062 12.769531 70.085938 12.242188 69.371094 11.734375 C 68.652344 11.230469 67.921875 10.746094 67.171875 10.285156 C 66.425781 9.828125 65.664062 9.390625 64.890625 8.980469 C 64.113281 8.570312 63.324219 8.183594 62.527344 7.824219 C 61.726562 7.460938 60.914062 7.125 60.09375 6.816406 C 59.273438 6.507812 58.441406 6.226562 57.601562 5.96875 C 56.761719 5.710938 55.917969 5.480469 55.0625 5.28125 C 54.210938 5.078125 53.347656 4.902344 52.484375 4.753906 C 51.621094 4.605469 50.75 4.484375 49.878906 4.394531 C 49.003906 4.300781 48.128906 4.238281 47.253906 4.199219 C 46.375 4.164062 45.5 4.152344 44.621094 4.171875 C 43.746094 4.191406 42.867188 4.238281 41.992188 4.3125 C 41.121094 4.386719 40.25 4.492188 39.378906 4.621094 C 38.511719 4.75 37.648438 4.910156 36.792969 5.09375 C 35.933594 5.28125 35.082031 5.492188 34.238281 5.730469 C 33.394531 5.96875 32.558594 6.234375 31.730469 6.527344 C 30.902344 6.820312 30.085938 7.140625 29.277344 7.484375 C 28.472656 7.828125 27.675781 8.199219 26.894531 8.59375 C 26.109375 8.988281 25.339844 9.410156 24.582031 9.855469 C 23.824219 10.296875 23.082031 10.765625 22.355469 11.257812 C 21.628906 11.75 20.917969 12.261719 20.222656 12.800781 C 19.53125 13.335938 18.851562 13.894531 18.195312 14.476562 C 17.535156 15.054688 16.894531 15.65625 16.277344 16.277344 C 15.65625 16.894531 15.054688 17.535156 14.476562 18.195312 C 13.894531 18.851562 13.335938 19.53125 12.800781 20.222656 C 12.261719 20.917969 11.75 21.628906 11.257812 22.355469 C 10.765625 23.082031 10.296875 23.824219 9.855469 24.582031 C 9.410156 25.339844 8.988281 26.109375 8.59375 26.894531 C 8.199219 27.675781 7.828125 28.472656 7.484375 29.277344 C 7.140625 30.085938 6.820312 30.902344 6.527344 31.730469 C 6.234375 32.558594 5.96875 33.394531 5.730469 34.238281 C 5.492188 35.082031 5.28125 35.933594 5.09375 36.792969 C 4.910156 37.648438 4.75 38.511719 4.621094 39.378906 C 4.492188 40.25 4.386719 41.121094 4.3125 41.992188 C 4.238281 42.867188 4.191406 43.746094 4.171875 44.621094 C 4.152344 45.5 4.164062 46.375 4.199219 47.253906 C 4.238281 48.128906 4.300781 49.003906 4.394531 49.878906 C 4.484375 50.75 4.605469 51.621094 4.753906 52.484375 C 4.902344 53.347656 5.078125 54.210938 5.28125 55.0625 C 5.480469 55.917969 5.710938 56.761719 5.96875 57.601562 C 6.226562 58.441406 6.507812 59.273438 6.816406 60.09375 C 7.125 60.914062 7.460938 61.726562 7.824219 62.527344 C 8.183594 63.324219 8.570312 64.113281 8.980469 64.890625 C 9.390625 65.664062 9.828125 66.425781 10.285156 67.171875 C 10.746094 67.921875 11.230469 68.652344 11.734375 69.371094 C 12.242188 70.085938 12.769531 70.789062 13.320312 71.46875 C 13.871094 72.152344 14.441406 72.820312 15.035156 73.464844 C 15.628906 74.113281 16.242188 74.738281 16.875 75.347656 C 17.507812 75.957031 18.160156 76.542969 18.832031 77.109375 C 19.5 77.675781 20.1875 78.21875 20.894531 78.742188 C 21.597656 79.265625 22.320312 79.765625 23.058594 80.242188 C 23.792969 80.71875 24.546875 81.171875 25.3125 81.601562 C 26.078125 82.027344 26.855469 82.433594 27.648438 82.8125 C 28.4375 83.191406 29.242188 83.542969 30.054688 83.871094 C 30.867188 84.199219 31.691406 84.503906 32.527344 84.777344 C 33.359375 85.054688 34.199219 85.304688 35.050781 85.527344 C 35.898438 85.746094 36.753906 85.941406 37.613281 86.109375 C 38.476562 86.277344 39.34375 86.417969 40.210938 86.53125 C 41.082031 86.644531 41.957031 86.726562 42.832031 86.785156 C 43.707031 86.84375 44.585938 86.871094 45.460938 86.871094 C 46.339844 86.875 47.214844 86.847656 48.09375 86.792969 C 48.96875 86.738281 49.839844 86.65625 50.710938 86.542969 C 51.582031 86.433594 52.449219 86.296875 53.3125 86.132812 C 54.171875 85.964844 55.027344 85.773438 55.878906 85.554688 C 56.726562 85.332031 57.570312 85.085938 58.402344 84.8125 C 59.238281 84.539062 60.0625 84.242188 60.878906 83.914062 C 61.691406 83.589844 62.496094 83.238281 63.289062 82.859375 C 64.082031 82.484375 64.859375 82.082031 65.628906 81.652344 C 66.394531 81.226562 67.144531 80.777344 67.882812 80.300781 C 68.621094 79.828125 69.34375 79.328125 70.050781 78.808594 C 70.757812 78.289062 71.449219 77.746094 72.121094 77.179688 L 105.863281 110.960938 C 106.199219 111.300781 106.589844 111.5625 107.03125 111.746094 C 107.472656 111.929688 107.933594 112.023438 108.414062 112.023438 C 108.890625 112.023438 109.351562 111.929688 109.792969 111.746094 C 110.234375 111.5625 110.625 111.300781 110.960938 110.960938 C 111.300781 110.625 111.5625 110.234375 111.746094 109.792969 C 111.929688 109.351562 112.023438 108.890625 112.023438 108.414062 C 112.023438 107.933594 111.929688 107.472656 111.746094 107.03125 C 111.5625 106.589844 111.300781 106.199219 110.960938 105.863281 Z M 11.488281 45.589844 C 11.488281 44.472656 11.542969 43.359375 11.652344 42.246094 C 11.761719 41.136719 11.925781 40.03125 12.144531 38.9375 C 12.359375 37.84375 12.632812 36.761719 12.957031 35.691406 C 13.28125 34.621094 13.65625 33.570312 14.082031 32.539062 C 14.511719 31.507812 14.988281 30.5 15.515625 29.515625 C 16.039062 28.53125 16.613281 27.574219 17.234375 26.644531 C 17.855469 25.714844 18.519531 24.820312 19.226562 23.957031 C 19.9375 23.09375 20.6875 22.265625 21.476562 21.476562 C 22.265625 20.6875 23.09375 19.9375 23.957031 19.226562 C 24.820312 18.519531 25.714844 17.855469 26.644531 17.234375 C 27.574219 16.613281 28.53125 16.039062 29.515625 15.515625 C 30.5 14.988281 31.507812 14.511719 32.539062 14.082031 C 33.570312 13.65625 34.621094 13.28125 35.691406 12.957031 C 36.761719 12.632812 37.84375 12.359375 38.9375 12.144531 C 40.03125 11.925781 41.136719 11.761719 42.246094 11.652344 C 43.359375 11.542969 44.472656 11.488281 45.589844 11.488281 C 46.707031 11.488281 47.820312 11.542969 48.933594 11.652344 C 50.042969 11.761719 51.148438 11.925781 52.242188 12.144531 C 53.339844 12.359375 54.421875 12.632812 55.492188 12.957031 C 56.558594 13.28125 57.609375 13.65625 58.640625 14.082031 C 59.671875 14.511719 60.683594 14.988281 61.667969 15.515625 C 62.652344 16.039062 63.609375 16.613281 64.539062 17.234375 C 65.464844 17.855469 66.363281 18.519531 67.226562 19.226562 C 68.089844 19.9375 68.914062 20.6875 69.707031 21.476562 C 70.496094 22.265625 71.246094 23.09375 71.953125 23.957031 C 72.660156 24.820312 73.324219 25.714844 73.945312 26.644531 C 74.566406 27.574219 75.140625 28.53125 75.667969 29.515625 C 76.195312 30.5 76.671875 31.507812 77.097656 32.539062 C 77.523438 33.570312 77.902344 34.621094 78.226562 35.691406 C 78.550781 36.761719 78.820312 37.84375 79.039062 38.9375 C 79.257812 40.03125 79.421875 41.136719 79.53125 42.246094 C 79.640625 43.359375 79.695312 44.472656 79.695312 45.589844 C 79.695312 46.707031 79.640625 47.820312 79.53125 48.933594 C 79.421875 50.042969 79.257812 51.148438 79.039062 52.242188 C 78.820312 53.339844 78.550781 54.421875 78.226562 55.492188 C 77.902344 56.558594 77.523438 57.609375 77.097656 58.640625 C 76.671875 59.671875 76.195312 60.683594 75.667969 61.667969 C 75.140625 62.652344 74.566406 63.609375 73.945312 64.539062 C 73.324219 65.464844 72.660156 66.363281 71.953125 67.226562 C 71.246094 68.089844 70.496094 68.914062 69.707031 69.707031 C 68.914062 70.496094 68.089844 71.246094 67.226562 71.953125 C 66.363281 72.660156 65.464844 73.324219 64.539062 73.945312 C 63.609375 74.566406 62.652344 75.140625 61.667969 75.667969 C 60.683594 76.195312 59.671875 76.671875 58.640625 77.097656 C 57.609375 77.523438 56.558594 77.902344 55.492188 78.226562 C 54.421875 78.550781 53.339844 78.820312 52.242188 79.039062 C 51.148438 79.257812 50.042969 79.421875 48.933594 79.53125 C 47.820312 79.640625 46.707031 79.695312 45.589844 79.695312 C 44.472656 79.691406 43.359375 79.636719 42.25 79.527344 C 41.136719 79.414062 40.035156 79.25 38.941406 79.03125 C 37.84375 78.8125 36.761719 78.542969 35.695312 78.21875 C 34.625 77.890625 33.578125 77.515625 32.546875 77.089844 C 31.515625 76.660156 30.507812 76.183594 29.523438 75.65625 C 28.535156 75.128906 27.582031 74.554688 26.652344 73.933594 C 25.722656 73.316406 24.828125 72.648438 23.964844 71.941406 C 23.101562 71.234375 22.277344 70.484375 21.488281 69.695312 C 20.695312 68.90625 19.949219 68.078125 19.238281 67.214844 C 18.53125 66.351562 17.867188 65.457031 17.246094 64.527344 C 16.625 63.601562 16.050781 62.644531 15.523438 61.660156 C 15 60.675781 14.519531 59.667969 14.09375 58.636719 C 13.664062 57.605469 13.289062 56.554688 12.964844 55.484375 C 12.640625 54.417969 12.367188 53.335938 12.148438 52.242188 C 11.929688 51.144531 11.765625 50.042969 11.65625 48.933594 C 11.542969 47.820312 11.488281 46.707031 11.488281 45.589844 Z M 11.488281 45.589844 " fill-opacity="1" fill-rule="nonzero"/></g></svg>