<svg xmlns="http://www.w3.org/2000/svg" xmlns:xlink="http://www.w3.org/1999/xlink" width="212" zoomAndPan="magnify" viewBox="0 0 159 187.499995" height="250" preserveAspectRatio="xMidYMid meet" version="1.0"><defs><clipPath id="9b11b6ed14"><path d="M 0.414062 0.0820312 L 158.609375 0.0820312 L 158.609375 186.917969 L 0.414062 186.917969 Z M 0.414062 0.0820312 " clip-rule="nonzero"/></clipPath></defs><g clip-path="url(#9b11b6ed14)"><path fill="#ffffff" d="M 129.621094 128.949219 C 121.507812 128.949219 114.175781 132.285156 108.910156 137.660156 L 56.445312 103.929688 C 57.695312 100.691406 58.386719 97.179688 58.386719 93.5 C 58.386719 89.824219 57.695312 86.308594 56.445312 83.074219 L 108.910156 49.339844 C 114.175781 54.714844 121.507812 58.054688 129.621094 58.054688 C 145.628906 58.054688 158.609375 45.078125 158.609375 29.070312 C 158.609375 13.058594 145.628906 0.0820312 129.621094 0.0820312 C 113.613281 0.0820312 100.636719 13.058594 100.636719 29.070312 C 100.636719 32.746094 101.328125 36.261719 102.578125 39.496094 L 50.109375 73.226562 C 44.847656 67.851562 37.515625 64.515625 29.402344 64.515625 C 13.394531 64.515625 0.414062 77.492188 0.414062 93.5 C 0.414062 109.507812 13.394531 122.488281 29.402344 122.488281 C 37.515625 122.488281 44.847656 119.148438 50.109375 113.773438 L 102.578125 147.507812 C 101.328125 150.742188 100.636719 154.257812 100.636719 157.933594 C 100.636719 173.945312 113.613281 186.917969 129.621094 186.917969 C 145.628906 186.917969 158.609375 173.945312 158.609375 157.933594 C 158.609375 141.925781 145.628906 128.949219 129.621094 128.949219 " fill-opacity="1" fill-rule="nonzero"/></g></svg>