<svg xmlns="http://www.w3.org/2000/svg" xmlns:xlink="http://www.w3.org/1999/xlink" width="212" zoomAndPan="magnify" viewBox="0 0 159 187.499995" height="250" preserveAspectRatio="xMidYMid meet" version="1.0"><defs><clipPath id="14f9c254b5"><path d="M 0.34375 0 L 158.535156 0 L 158.535156 187 L 0.34375 187 Z M 0.34375 0 " clip-rule="nonzero"/></clipPath></defs><g clip-path="url(#14f9c254b5)"><path fill="#000000" d="M 129.550781 128.984375 C 121.4375 128.984375 114.105469 132.328125 108.839844 137.707031 L 56.375 103.945312 C 57.625 100.703125 58.316406 97.1875 58.316406 93.507812 C 58.316406 89.824219 57.625 86.308594 56.375 83.070312 L 108.839844 49.304688 C 114.105469 54.683594 121.4375 58.027344 129.550781 58.027344 C 145.558594 58.027344 158.535156 45.035156 158.535156 29.011719 C 158.535156 12.988281 145.558594 -0.00390625 129.550781 -0.00390625 C 113.542969 -0.00390625 100.566406 12.988281 100.566406 29.011719 C 100.566406 32.695312 101.257812 36.210938 102.507812 39.449219 L 50.039062 73.214844 C 44.777344 67.832031 37.445312 64.492188 29.332031 64.492188 C 13.324219 64.492188 0.34375 77.484375 0.34375 93.507812 C 0.34375 109.53125 13.324219 122.519531 29.332031 122.519531 C 37.445312 122.519531 44.777344 119.175781 50.039062 113.796875 L 102.507812 147.5625 C 101.257812 150.800781 100.566406 154.320312 100.566406 158 C 100.566406 174.023438 113.542969 187.011719 129.550781 187.011719 C 145.558594 187.011719 158.535156 174.023438 158.535156 158 C 158.535156 141.976562 145.558594 128.984375 129.550781 128.984375 " fill-opacity="1" fill-rule="nonzero"/></g></svg>