<svg xmlns="http://www.w3.org/2000/svg" xmlns:xlink="http://www.w3.org/1999/xlink" width="150" zoomAndPan="magnify" viewBox="0 0 112.5 112.499997" height="150" preserveAspectRatio="xMidYMid meet" version="1.0"><defs><clipPath id="6b003601ab"><path d="M 2.308594 0 L 109.691406 0 L 109.691406 108 L 2.308594 108 Z M 2.308594 0 " clip-rule="nonzero"/></clipPath></defs><g clip-path="url(#6b003601ab)"><path fill="#9e9e9e" d="M 80.6875 72.3125 C 85.992188 63.777344 93.023438 54.359375 104.628906 54.597656 C 104.628906 54.597656 101.574219 50.710938 95.75 50.988281 C 95.75 50.988281 92.167969 42.042969 84.222656 42.191406 C 83.011719 42.214844 81.871094 42.386719 80.757812 42.710938 C 76.070312 43.105469 74.78125 39.511719 74.78125 39.511719 C 74.429688 42.109375 75.1875 43.890625 76.039062 45.027344 C 72.890625 47.175781 69.5625 50.535156 65.191406 55.089844 C 35.308594 50.039062 30.363281 20.925781 30.363281 20.925781 C 26.148438 41.117188 34.242188 58.710938 40.683594 68.832031 C 32.226562 70.074219 21.367188 69.328125 7.398438 65.023438 C 7.398438 65.023438 56.011719 111.988281 80.6875 72.3125 Z M 42.433594 18.984375 C 40.761719 26.988281 41.027344 34.582031 42.355469 41.46875 C 48.175781 47.859375 55.664062 51.925781 64.703125 53.59375 C 65.773438 52.484375 66.785156 51.441406 67.753906 50.46875 C 46.289062 41.675781 42.433594 18.984375 42.433594 18.984375 Z M 56.011719 -0.0078125 C 85.625 -0.0078125 109.632812 23.996094 109.632812 53.609375 C 109.632812 83.222656 85.625 107.230469 56.011719 107.230469 C 26.398438 107.230469 2.394531 83.222656 2.394531 53.609375 C 2.394531 23.996094 26.398438 -0.0078125 56.011719 -0.0078125 " fill-opacity="1" fill-rule="nonzero"/></g></svg>